<?xml version="1.0" encoding="utf-8"?>
<!-- Generator: Adobe Illustrator 19.2.1, SVG Export Plug-In . SVG Version: 6.00 Build 0)  -->
<svg version="1.0" id="Layer_1" xmlns="http://www.w3.org/2000/svg" xmlns:xlink="http://www.w3.org/1999/xlink" x="0px" y="0px" width="190" height="47"
	 viewBox="0 0 348.1 85.4" style="enable-background:new 0 0 348.1 85.4;" xml:space="preserve">
<style type="text/css">
	.st0{fill:#303030;}
	.st1{fill:#E2454A;}
</style>
<title>logo_main2</title>
<path class="st0" d="M154.5,45.5H142v14.3h-6.7V25.6h6.7v13.9h12.5V25.6h6.7v34.2h-6.7L154.5,45.5L154.5,45.5z"/>
<path class="st0" d="M185.3,52.1h-10.5l-2.6,7.6h-6.7l12.3-34.4h4.9l12.3,34.4h-7L185.3,52.1z M176.5,46.8h7.3l-2.1-7.7l-1.5-5.3
	H180l-1.4,5.3L176.5,46.8z"/>
<path class="st0" d="M226.4,42.2l0-6.9h-0.4l-2.5,5.3l-6.2,13h-2.1L208,40.2l-2.6-5H205l0.1,6.7v17.9h-5.7V25.6h6.3l8.5,14.5
	l2.1,3.8h0.2l1.9-3.8l8-14.4h6.2v34.2h-6.2L226.4,42.2L226.4,42.2z"/>
<path class="st0" d="M254.5,50.6c0-1-0.4-1.9-1.1-2.5c-0.9-0.7-1.8-1.3-2.9-1.8c-1.2-0.5-2.4-1.1-3.8-1.7c-1.3-0.6-2.6-1.3-3.8-2.1
	c-1.2-0.8-2.1-1.9-2.9-3.1c-0.8-1.4-1.2-3.1-1.1-4.7c0-1.5,0.2-3,0.8-4.3c0.5-1.2,1.3-2.2,2.4-3.1c1.1-0.8,2.3-1.5,3.6-1.8
	c1.5-0.4,3.1-0.6,4.7-0.6c1.9,0,3.8,0.2,5.6,0.5c1.9,0.3,3.6,0.9,5.3,1.9l-2,5.7c-1.3-0.7-2.7-1.3-4.2-1.8c-1.5-0.4-3.1-0.6-4.6-0.6
	c-1.3-0.1-2.5,0.2-3.6,0.9c-0.8,0.6-1.3,1.5-1.2,2.5c0,0.9,0.4,1.8,1.1,2.4c0.9,0.7,1.8,1.3,2.9,1.8c1.2,0.6,2.4,1.1,3.8,1.7
	c1.3,0.6,2.6,1.3,3.8,2.1c1.2,0.8,2.1,1.9,2.9,3.1c0.8,1.4,1.2,3,1.1,4.6c0,1.6-0.3,3.2-0.9,4.7c-0.6,1.3-1.4,2.4-2.5,3.3
	c-1.2,0.9-2.5,1.6-4,2c-1.7,0.4-3.4,0.7-5.1,0.6c-2.2,0-4.3-0.2-6.4-0.7c-1.1-0.2-2.2-0.5-3.3-0.9v-6.7c0.8,0.4,2.2,0.9,2.8,1.1
	c0.6,0.2,1.3,0.5,1.9,0.6c0.7,0.2,1.5,0.4,2.3,0.5c0.8,0.1,1.6,0.2,2.5,0.2c1.6,0.1,3.2-0.3,4.6-1C254,53,254.6,51.8,254.5,50.6z"/>
<path class="st0" d="M291.5,31.5h-10v28.2h-6.7V31.5h-10.1l2.1-6h24.6L291.5,31.5L291.5,31.5z"/>
<path class="st0" d="M296.2,25.6h20.3v6h-13.6v8h9.1v6h-9.1v8.4h13.6v6h-20.3V25.6L296.2,25.6z"/>
<path class="st0" d="M323.8,25.9c0.7-0.1,1.6-0.3,2.4-0.4s1.7-0.2,2.6-0.3c0.9-0.1,0.6-0.1,1.4-0.1c0.8,0,1.6,0,2.2,0
	c1.9,0,3.9,0.1,5.8,0.4c1.5,0.3,2.9,0.8,4.2,1.5c1.2,0.7,2.2,1.7,2.9,3c0.8,1.4,1.2,3.1,1.1,4.7c0.1,2.4-0.6,4.8-2,6.8
	c-1.3,1.5-3.1,2.6-5,3.1c0.9,0.7,1.8,1.6,2.4,2.6c0.5,1,6.2,12.5,6.2,12.5h-7.5l-6.8-14l-3.4,0v14h-6.7V25.9z M334,31.1
	c-0.7,0-1.4,0-2,0c-0.5,0-1,0.1-1.5,0.2v9.9h2.8c1.6,0.1,3.1-0.4,4.4-1.3c1.2-1.1,1.8-2.6,1.7-4.2c0.1-1.3-0.4-2.6-1.4-3.4
	C336.9,31.4,335.5,31,334,31.1z"/>
<path class="st1" d="M122.1,59.8l-6.9-11.3l-6.8,11.3h-7.7L111,42.7l-10.2-17.1h7.7l6.8,11l6.8-11h7.7l-10.2,17.1l10.2,17.1H122.1z"
	/>
<path class="st0" d="M91.4,41.2c-2.3-5.2-5.1-6.9-8.6-9.5c-1.3-0.8-2.4-1.8-3.3-2.9c-0.4-0.6-0.6-1.3-0.6-2.1c0-0.9,0.2-1.8,0.5-2.6
	c1.2-3.5,1.9-7.1,1.9-10.8C81.4,8.2,79.3,0,72.9,0c-0.9,0-1.8,0.1-2.6,0.4c-1.5,0.6-2.7,1.5-3.7,2.7c-1.3,1.4-5,7.1-6.3,7.6
	c-0.3,0.1-0.6,0.1-0.8,0c-4.3-1.4-8.7-2.2-13.3-2.2c-4.5,0-9,0.8-13.3,2.2c-0.3,0.1-0.6,0.1-0.8,0c-1.3-0.5-5-6.2-6.3-7.6
	c-1-1.2-2.3-2.1-3.7-2.7C21.2,0.1,20.3,0,19.4,0c-6.4,0-8.5,8.2-8.5,13.3c0,3.7,0.7,7.3,1.9,10.8c0.3,0.9,0.5,1.7,0.5,2.6
	c0,0.7-0.2,1.4-0.6,2.1c-0.9,1.2-2,2.2-3.3,2.9C6,34.3,3.2,36,0.9,41.2C0.3,42.8,0,44.4,0,46.1c0,2.8,1,5.2,2.5,8.1
	c3.2,6.5,9.7,14,14.1,17.8c8.5,7.5,19.2,12.8,28.5,13.3c0.3,0,0.7,0,1,0c0.3,0,0.7,0,1,0c9.3-0.6,20-5.9,28.5-13.3
	c4.4-3.9,10.9-11.3,14.1-17.8c1.4-2.9,2.5-5.3,2.5-8.1C92.3,44.4,92,42.8,91.4,41.2z M68.9,12.6c1.3-1.5,4.3-3.5,6.2-2.2
	c2.2,1.3,1.9,6.1,1.5,8.3c-0.3,1.4-0.7,2.8-1.3,4.1c-0.5,1.1-0.9,2.2-1.4,3.5c-2.3-1.6-4.3-3.7-5.9-6C66.4,17.6,66.9,14.8,68.9,12.6
	z M63.7,23.7c2.6,1.5,4.2,4.2,4.4,7.2c0.1,1.1-0.2,2.2-0.9,3.1c-0.4,0.5-1,0.7-1.7,0.8c1.5-2,1.4-4.7-0.2-6.6
	c-0.9-1.2-2.3-1.9-3.8-2c-3.6-0.1-6,2.7-6,6.2c-0.4-0.6-0.7-1.2-1-1.9c-0.8-2.3-0.5-5.2,1.2-6.8C57.9,22.1,61.6,22.5,63.7,23.7z
	 M35.2,14.2c0.4-0.5,1-0.9,1.6-1c3-0.8,6.1-1.3,9.1-1.3l0.2,0l0.2,0c3.1,0,6.2,0.5,9.1,1.3c0.6,0.1,1.2,0.5,1.6,1
	c0.1,0.3,0.1,0.5,0,0.8c-0.8,1-1.8,1.9-2.8,2.6c-3.3,2.7-5.4,4.8-6.5,9.2c-0.6,2.2-0.5,4.5,0.2,6.7c1.1,3.5,3.7,5.6,4.9,8.8
	c0.7,1.5,0.8,3.2,0.2,4.8c-1.1,2.3-4.4,2.7-6.6,2.7h-0.2h-0.2c-2.3,0-5.5-0.4-6.6-2.7c-0.6-1.5-0.5-3.3,0.2-4.8
	c1.2-3.2,3.7-5.3,4.9-8.8c0.7-2.2,0.8-4.5,0.2-6.7c-1.1-4.3-3.2-6.5-6.5-9.2c-1-0.8-2-1.7-2.8-2.6C35.1,14.8,35.1,14.5,35.2,14.2z
	 M28.5,23.7c2.1-1.3,5.8-1.6,7.8,0.1c1.8,1.5,2,4.4,1.2,6.8c-0.2,0.7-0.5,1.3-1,1.9c0-3.5-2.4-6.4-6-6.2c-1.5,0.1-2.9,0.8-3.8,2
	c-1.6,1.9-1.7,4.6-0.2,6.6c-0.6,0-1.2-0.3-1.7-0.8c-0.7-0.9-1-2-0.9-3.1C24.3,28,26,25.3,28.5,23.7L28.5,23.7z M17.1,10.3
	c2-1.2,5,0.8,6.2,2.2c2,2.3,2.5,5.1,0.9,7.7c-1.6,2.3-3.6,4.4-5.9,6c-0.5-1.3-0.9-2.5-1.4-3.5c-0.6-1.3-1-2.7-1.3-4.1
	C15.2,16.4,14.9,11.7,17.1,10.3L17.1,10.3z M87.5,48.2c-1.4,4-5.9,10.3-9.4,14.7c-3.7,4.6-8.3,8.6-13.3,11.7
	c-5.1,3.1-12.5,6.1-18.6,6.3c-6.1-0.2-13.5-3.2-18.6-6.3c-5.1-3.1-9.6-7-13.3-11.7c-3.6-4.4-8-10.7-9.4-14.7c-0.6-1.6-0.6-3.4,0-5
	c1.1-2.9,3.1-5.4,5.7-7.2c0.7-0.6,1.6-0.9,2.5-0.9c2,0.3,3.1,3.1,3.9,4.7c-0.5,0.5-1.1,1-1.7,1.6c-3.4,3.7-2.9,8.5-0.8,13
	c2.9,6,8.6,12,13.5,16.4c-3.5-8.3-2.2-19,6.4-23.9C33.5,57.2,57.2,59,58,46.8c8.5,4.8,9.9,15.5,6.4,23.9c5-4.3,10.7-10.3,13.6-16.4
	c2.1-4.6,2.6-9.3-0.8-13c-0.5-0.6-1.1-1-1.7-1.6c0.8-1.6,1.9-4.4,3.9-4.7c0.9,0,1.8,0.3,2.5,0.9c2.6,1.8,4.6,4.3,5.7,7.2
	C88.1,44.8,88.1,46.6,87.5,48.2z"/>
<path class="st0" d="M54.2,62c-1,0.3-2,0.4-3,0.4c-1.6,0-3-0.9-3.8-2.3c-0.1-0.3-0.4-0.3-1.2-0.3h-0.1h-0.1h-0.1h-0.1
	c-0.8,0-1,0-1.2,0.3c-0.7,1.4-2.2,2.3-3.8,2.3c-1,0.1-2-0.1-3-0.4c-3.4-1.1-3.6-1.5-7.4-1.5c3.5,8.1,9.1,14.2,15.4,14.2h0.2
	c6.3,0,11.8-6,15.4-14.2C57.8,60.5,57.6,60.9,54.2,62z M45.2,73.1c-0.7-0.1-1.3-0.2-1.9-0.4c-0.6-0.1-1.1-0.4-1.6-0.7
	c-0.3-0.2-0.5-0.5-0.6-0.8c-0.9-2.1-1.7-4.4-2.3-6.6c2.3,0.3,4.6-0.3,6.5-1.5L45.2,73.1L45.2,73.1z M51.2,71.1
	c-0.1,0.3-0.4,0.6-0.6,0.8c-0.5,0.3-1.1,0.6-1.6,0.7c-0.6,0.2-1.3,0.4-1.9,0.4V63c1.9,1.3,4.2,1.8,6.5,1.5
	C52.9,66.8,52.2,69,51.2,71.1L51.2,71.1z"/>
</svg>
