<svg xmlns="http://www.w3.org/2000/svg" viewBox="0 0 569.7 120"><linearGradient id="a" gradientUnits="userSpaceOnUse" x1="-8600.492" y1="-4719.145" x2="-8600.492" y2="-4553.374" gradientTransform="rotate(180 -4107.903 -2290.235)"><stop offset="0" stop-color="#a80002"/><stop offset="1" stop-color="#ea021a"/></linearGradient><path fill="url(#a)" d="M199.7 0h362c4.4 0 8 3.6 8 8v104c0 4.4-3.6 8-8 8h-362V0z"/><linearGradient id="b" gradientUnits="userSpaceOnUse" x1="99.851" y1="138.674" x2="99.851" y2="-27.096"><stop offset="0" stop-color="#00043b"/><stop offset="1" stop-color="#002672"/></linearGradient><path fill="url(#b)" d="M199.7 120H8c-4.4 0-8-3.6-8-8V7.9C0 3.7 3.5 0 7.9 0h191.8v120z"/><path opacity=".2" fill="#FFF" d="M8 0h553.7c4.4 0 8 3.6 8 8v38.2L11.5 68.5C5.1 68.7 0 74 0 80.4V8c0-4.4 3.6-8 8-8z"/><path fill="#FFF" d="M135 106.7c1.3.7 3.9 1.5 7.3 1.5 5.7.1 8.8-2.1 11.1-7.2L184 32.8c-1.3-.7-4.1-1.4-6.3-1.5-3.9-.1-9.2.7-12.6 8.8l-9.9 23.4L135.7 32c-1.3-.4-4.3-.9-6.6-.9-6.8 0-10.7 2.5-14.7 6.8L95.6 58.5l15.2 23.9c2.8 4.4 6.5 6.6 12.5 6.6 3.9 0 7.2-.9 8.7-1.6l-18.3-27.6 13-13.7L148 79.5l-13 27.2zM94.9 80.9c0 5-2 7.9-11.8 7.9-1.3 0-2.4-.1-3.5-.3V21.9c0-5.1 1.7-10.3 11.6-10.3 1.2 0 2.5.1 3.7.4v68.9zm-20.3-10c0 9.4-6.1 16.2-18.6 17.6-9 1-22.1-.2-28.3-.9-.2-1-.4-2.3-.4-3.3 0-8.2 4.4-10.1 8.6-10.1 4.3 0 11.1.7 16.2.7 5.6 0 7.2-1.9 7.2-3.7 0-2.4-2.2-3.3-6.6-4.2L41 64.9C31.2 63 26 56.2 26 49c0-8.8 6.2-16.1 18.4-17.5 9.2-1 20.5.1 26.6.9.2 1.1.3 2.1.3 3.2 0 8.2-4.3 9.9-8.5 9.9-3.2 0-8.1-.6-13.8-.6-5.8 0-8.1 1.6-8.1 3.5 0 2 2.3 2.9 5.9 3.5L58.1 54c11.6 2.2 16.5 8.8 16.5 16.9M224.3 85.3c-.6-4.7.9-7.2 3.4-7.2 2.7 0 9.2 3 18.4 3 9.8 0 13.5-3.6 13.5-8.2 0-3.2-1.4-5.8-10.4-8.3l-10-2.8c-10.7-2.9-15.1-8.3-15.1-15.1 0-8.2 6.5-15.8 21.6-15.8 6.8 0 15.2 1.6 20.2 3.6.6 4.6-.9 7-3.2 7-2.5 0-8.6-2.8-17-2.8-9 0-12.4 3.3-12.4 7.6 0 2.8 1.3 5.4 9.5 7.7l10.2 3c11.3 3.2 15.9 8.5 15.9 15.6 0 8.8-6.9 16.6-23 16.6-7.4 0-16.3-1.8-21.6-3.9M334.9 60c0 18.1-12.7 29.1-27 29.1-8.6 0-15.5-4-19.6-9.8v24.5c0 2.1-1.2 3.5-4.8 3.5-1.6 0-3.4-.2-4.2-.5V32.3c.8-.2 2.6-.6 4.2-.6 3.6 0 4.8 1.4 4.8 3.5v5.6c4.1-5.8 11-9.8 19.6-9.8 14.3.1 27 11 27 29m-9.2 0c0-12.4-8.3-20.9-19.4-20.9-7.7 0-14.8 4.4-18 10.9v20.3c3.2 6.4 10.3 10.9 18 10.9 11.1-.1 19.4-8.6 19.4-21.2M343.8 60c0-16.6 12.3-28.9 28.7-28.9 16.5 0 28.7 12.4 28.7 28.9 0 16.7-12.3 29.1-28.7 29.1S343.8 76.7 343.8 60m48.2 0c0-12.8-8.8-20.9-19.5-20.9S353 47.2 353 60c0 13 8.8 21.1 19.5 21.1S392 73 392 60M446.2 36.1c0 3.4-1.5 4.2-4.8 4.2-6.4 0-15.5 2.1-20.1 12.4v32.2c0 2.2-1.2 3.5-4.8 3.5-1.6 0-3.4-.2-4.2-.5V32.3c.8-.2 2.6-.6 4.2-.6 3.6 0 4.8 1.4 4.8 3.5V42c5.1-7.4 14-11.4 24.5-9.7.1.7.4 2.4.4 3.8M498.2 85.3c-.6-4.7.9-7.2 3.4-7.2 2.7 0 9.2 3 18.4 3 9.8 0 13.5-3.6 13.5-8.2 0-3.2-1.4-5.8-10.4-8.3l-10-2.8c-10.7-2.9-15.1-8.3-15.1-15.1 0-8.2 6.5-15.8 21.6-15.8 6.8 0 15.2 1.6 20.2 3.6.6 4.6-.9 7-3.2 7-2.4 0-8.6-2.8-17-2.8-9 0-12.4 3.3-12.4 7.6 0 2.8 1.3 5.4 9.5 7.7l10.2 2.8c11.3 3.2 15.9 8.5 15.9 15.6 0 8.8-6.9 16.6-23 16.6-7.3.2-16.2-1.6-21.6-3.7M489 85.3c-4.8 2.3-10.4 3.7-16.1 3.7-11 0-17.6-6.3-17.6-17.2v-50c0-2.1 1.2-3.5 4.8-3.5 1.6 0 3.4.4 4.2.7v13.2h22.3c.1.7.3 2.2.3 3.6 0 3.3-1.4 4.3-3.4 4.3h-19.3V71c0 6.8 3.3 9.7 9.6 9.7 5.7 0 9.1-2.2 11.8-2.2 2.6.2 3.9 2.5 3.4 6.8"/></svg>