<svg id="Layer_1" xmlns="http://www.w3.org/2000/svg" viewBox="0 0 313.4 60"><style>.st0{fill:#fff}</style><path class="st0" d="M67.5 58.9c.8.4 2.4.9 4.5 1 3.5.1 5.4-1.3 6.9-4.4l18.9-42.2c-.8-.4-2.5-.9-3.9-.9-2.4 0-5.7.5-7.8 5.4L80 32.2 68 12.6c-.8-.2-2.7-.6-4.1-.6-4.2 0-6.6 1.6-9.1 4.2L43.1 29l9.4 14.8c1.7 2.7 4 4.1 7.7 4.1 2.4 0 4.5-.6 5.4-1L54.3 29.8l8-8.5L75.5 42l-8 16.9zm-24.8-16c0 3.1-1.2 4.9-7.3 4.9-.8 0-1.5-.1-2.2-.2V6.4c0-3.1 1.1-6.4 7.2-6.4.8 0 1.6.1 2.3.2v42.7zm-12.6-6.2c0 5.8-3.8 10-11.5 10.9-5.5.6-13.6-.1-17.5-.6-.1-.6-.3-1.4-.3-2 0-5.1 2.7-6.2 5.3-6.2 2.7 0 6.9.5 10 .5 3.4 0 4.5-1.2 4.5-2.3 0-1.5-1.4-2.1-4.1-2.6L9.3 33C3.2 31.8 0 27.6 0 23.2c0-5.4 3.8-10 11.4-10.8 5.7-.6 12.7.1 16.5.5.1.7.2 1.3.2 2 0 5.1-2.7 6.2-5.2 6.2-2 0-5-.4-8.5-.4-3.6 0-5 1-5 2.2 0 1.3 1.4 1.8 3.6 2.2l7 1.3c7.1 1.2 10.1 5.3 10.1 10.3M122.7 45.7c-.3-2.8.6-4.3 2-4.3 1.6 0 5.5 1.8 11 1.8 5.8 0 8.1-2.2 8.1-4.9 0-1.9-.8-3.5-6.2-4.9l-6-1.7c-6.4-1.7-9-4.9-9-9 0-4.9 3.9-9.4 12.9-9.4 4 0 9 1 12 2.2.3 2.7-.6 4.2-1.9 4.2-1.5 0-5.1-1.7-10.2-1.7-5.4 0-7.4 1.9-7.4 4.5 0 1.7.8 3.2 5.6 4.6l6.1 1.7c6.7 1.9 9.5 5.1 9.5 9.3 0 5.2-4.1 9.9-13.7 9.9-4.3 0-9.6-1-12.8-2.3zM189.1 30.6c0 10.8-7.6 17.3-16.1 17.3-5.1 0-9.3-2.4-11.7-5.8v15.8c0 1.3-.7 2.1-2.9 2.1-1 0-2-.1-2.5-.3V14.1c.5-.1 1.5-.3 2.5-.3 2.2 0 2.9.8 2.9 2.1v3.3c2.4-3.5 6.5-5.8 11.7-5.8 8.5 0 16.1 6.5 16.1 17.2zm-5.5 0c0-7.4-4.9-12.5-11.6-12.5-4.6 0-8.8 2.6-10.7 6.5v12.1c1.9 3.8 6.1 6.5 10.7 6.5 6.6 0 11.6-5 11.6-12.6zM194.8 30.6c0-9.9 7.3-17.3 17.1-17.3S229 20.7 229 30.6c0 10-7.3 17.3-17.1 17.3-9.8.1-17.1-7.3-17.1-17.3zm28.7 0c0-7.7-5.2-12.5-11.6-12.5s-11.6 4.8-11.6 12.5 5.2 12.6 11.6 12.6 11.6-4.8 11.6-12.6zM256.5 16.4c0 2-.9 2.5-2.9 2.5-3.8 0-9.3 1.3-12 7.4v19.2c0 1.3-.7 2.1-2.9 2.1-1 0-2-.1-2.5-.3V14.1c.5-.1 1.5-.3 2.5-.3 2.2 0 2.9.8 2.9 2.1v4c3.1-4.4 8.4-6.8 14.6-5.8.1.5.3 1.4.3 2.3zM281.7 45.7c-2.9 1.4-6.2 2.2-9.6 2.2-6.5 0-10.5-3.8-10.5-10.2V9.1c0-1.3.7-2.1 2.9-2.1 1 0 2 .2 2.5.4v6.7h13.3c.1.4.2 1.3.2 2.2 0 1.9-.8 2.6-2 2.6H267v18.4c0 4 1.9 5.8 5.7 5.8 3.4 0 5.4-1.3 7-1.3 1.5 0 2.2 1.4 2 3.9zM286.8 45.7c-.3-2.8.6-4.3 2-4.3 1.6 0 5.5 1.8 11 1.8 5.8 0 8.1-2.2 8.1-4.9 0-1.9-.8-3.5-6.2-4.9l-6-1.7c-6.4-1.7-9-4.9-9-9 0-4.9 3.9-9.4 12.9-9.4 4 0 9 1 12 2.2.3 2.7-.6 4.2-1.9 4.2-1.5 0-5.1-1.7-10.2-1.7-5.4 0-7.4 1.9-7.4 4.5 0 1.7.8 3.2 5.6 4.6l6.1 1.7c6.7 1.9 9.5 5.1 9.5 9.3 0 5.2-4.1 9.9-13.7 9.9-4.3 0-9.6-1-12.8-2.3z"/></svg>